<svg width="100" viewBox="0 0 219.287 114.942"><g><path d="M 22.998 78.467 Q 23.291 82.422 23.291 87.94 Q 23.291 93.848 22.559 98.804 Q 21.826 103.76 20.41 107.349 Q 18.994 110.938 16.895 112.94 Q 14.795 114.942 12.061 114.942 Q 10.693 114.942 9.473 114.307 Q 8.252 113.672 7.349 112.5 Q 6.445 111.329 5.933 109.717 Q 5.42 108.106 5.42 106.104 Q 5.42 103.125 6.128 99.805 Q 6.836 96.485 8.447 92.872 Q 10.059 89.258 12.695 85.328 Q 15.332 81.397 19.189 77.149 Q 18.994 75.049 18.677 73.243 Q 18.359 71.436 17.871 70.118 Q 17.383 68.799 16.724 68.067 Q 16.064 67.334 15.137 67.334 Q 14.844 67.334 14.453 67.432 Q 13.33 68.75 12.427 69.483 Q 11.523 70.215 10.791 70.606 Q 10.059 70.997 9.546 71.094 Q 9.033 71.192 8.789 71.192 Q 7.959 71.192 7.202 70.728 Q 6.445 70.264 6.445 68.995 Q 6.445 68.555 6.763 67.872 Q 7.08 67.188 7.813 66.431 Q 8.545 65.674 9.741 65.015 Q 10.938 64.356 12.647 64.014 Q 15.869 60.547 17.676 57.642 Q 19.482 54.737 19.482 52.198 Q 19.482 50 18.115 48.682 Q 16.748 47.364 14.648 47.364 Q 11.719 47.364 8.789 50.098 Q 5.859 52.833 3.516 57.666 Q 2.979 58.741 1.807 58.741 Q 0.977 58.741 0.488 58.155 Q 0 57.569 0 56.885 Q 0 56.446 0.195 56.104 Q 3.076 50.196 6.836 46.924 Q 10.596 43.653 14.697 43.653 Q 16.357 43.653 17.896 44.239 Q 19.434 44.825 20.606 45.923 Q 21.777 47.022 22.461 48.609 Q 23.145 50.196 23.145 52.247 Q 23.145 53.956 22.681 55.542 Q 22.217 57.129 21.436 58.619 Q 20.654 60.108 19.629 61.475 Q 18.604 62.842 17.529 64.112 Q 18.848 64.698 19.702 65.772 Q 20.557 66.846 21.118 68.165 Q 21.68 69.483 21.973 70.899 Q 22.266 72.315 22.461 73.633 Q 24.316 71.631 26.318 69.385 Q 28.32 67.139 30.176 64.844 Q 32.031 62.549 33.569 60.328 Q 35.107 58.106 35.986 56.153 Q 36.231 55.616 36.67 55.347 A 1.836 1.836 0 0 1 36.874 55.24 A 16.963 16.963 0 0 1 38.081 53.259 A 14.001 14.001 0 0 1 39.697 51.368 Q 41.699 49.415 44.116 48.438 Q 46.533 47.461 48.779 47.461 Q 50.293 47.461 51.563 47.876 Q 52.832 48.291 53.735 48.78 Q 54.639 49.268 55.127 49.683 Q 55.615 50.098 55.664 50.147 Q 56.201 50.782 56.201 51.465 Q 56.201 52.198 55.664 52.759 Q 55.127 53.321 54.395 53.321 Q 53.613 53.321 53.076 52.784 Q 52.979 52.686 52.637 52.417 Q 52.295 52.149 51.709 51.856 Q 51.123 51.563 50.317 51.343 Q 49.512 51.124 48.486 51.124 Q 46.973 51.124 45.264 51.807 Q 43.555 52.491 42.139 53.931 Q 40.723 55.372 39.771 57.544 Q 38.818 59.717 38.818 62.696 Q 38.818 63.624 39.014 64.576 Q 39.209 65.528 39.697 66.309 Q 40.186 67.09 41.016 67.579 Q 41.846 68.067 43.066 68.067 Q 43.945 68.067 45.093 67.481 Q 46.24 66.895 47.29 65.674 Q 48.34 64.454 49.194 62.598 Q 50.049 60.743 50.391 58.204 Q 50.488 57.52 51.025 57.056 Q 51.563 56.592 52.295 56.592 Q 52.979 56.592 53.491 57.129 Q 54.004 57.666 54.053 58.35 Q 54.102 59.278 54.248 60.962 Q 54.395 62.647 54.907 64.307 Q 55.42 65.967 56.445 67.188 Q 57.471 68.409 59.277 68.409 Q 60.449 68.409 61.597 67.774 Q 62.744 67.139 63.843 66.089 Q 64.941 65.04 65.942 63.697 Q 66.943 62.354 67.773 60.987 Q 68.604 59.62 69.238 58.35 Q 69.873 57.081 70.313 56.153 A 1.967 1.967 0 0 1 70.543 55.763 A 80.238 80.238 0 0 1 70.261 53.551 A 90.588 90.588 0 0 1 70.093 51.954 Q 69.678 47.657 69.58 43.262 Q 69.482 38.868 69.482 34.913 Q 69.482 27.344 69.922 21.802 Q 70.361 16.26 71.118 12.378 Q 71.875 8.497 72.876 6.08 Q 73.877 3.663 75 2.32 Q 76.123 0.977 77.295 0.489 Q 78.467 0 79.59 0 Q 81.397 0 82.788 1.075 Q 84.18 2.149 85.132 4.078 Q 86.084 6.006 86.572 8.741 Q 87.061 11.475 87.061 14.747 Q 87.061 19.971 85.938 25.538 Q 84.814 31.104 83.032 36.646 Q 81.25 42.188 79.053 47.535 Q 76.856 52.881 74.707 57.666 Q 75 60.059 75.586 62.232 Q 76.172 64.405 77.1 66.089 Q 78.027 67.774 79.297 68.775 Q 80.566 69.776 82.227 69.776 Q 83.887 69.776 85.352 68.824 Q 86.816 67.872 87.891 66.333 Q 88.965 64.795 89.575 62.842 Q 90.186 60.889 90.186 58.838 Q 90.186 57.471 89.917 56.08 Q 89.648 54.688 89.087 53.589 Q 88.525 52.491 87.695 51.807 Q 86.865 51.124 85.693 51.124 Q 84.814 51.124 84.326 51.49 Q 83.838 51.856 83.594 52.32 Q 83.35 52.784 83.301 53.223 Q 83.252 53.663 83.252 53.809 Q 83.252 54.493 83.545 55.176 Q 83.838 55.86 84.668 56.397 Q 85.498 56.983 85.498 58.008 Q 85.498 58.838 84.937 59.327 Q 84.375 59.815 83.691 59.815 Q 82.715 59.815 81.958 59.229 Q 81.201 58.643 80.664 57.74 Q 80.127 56.836 79.834 55.811 Q 79.541 54.786 79.541 53.907 Q 79.541 52.491 80.029 51.294 Q 80.518 50.098 81.372 49.244 Q 82.227 48.389 83.325 47.925 Q 84.424 47.461 85.645 47.461 Q 87.744 47.461 89.282 48.438 Q 90.82 49.415 91.846 51.026 Q 92.871 52.637 93.359 54.688 Q 93.848 56.739 93.848 58.838 Q 93.848 60.059 93.701 61.231 Q 93.897 61.622 94.336 62.256 Q 94.775 62.891 95.508 63.477 Q 96.24 64.063 97.266 64.502 Q 98.291 64.942 99.658 64.942 Q 100.83 64.942 102.075 64.039 Q 103.32 63.135 104.468 61.792 Q 105.615 60.45 106.592 58.912 Q 107.568 57.374 108.203 56.055 A 1.871 1.871 0 0 1 108.384 55.759 A 80.238 80.238 0 0 1 108.103 53.551 A 90.588 90.588 0 0 1 107.935 51.954 Q 107.52 47.657 107.422 43.262 Q 107.324 38.868 107.324 34.913 Q 107.324 27.344 107.764 21.802 Q 108.203 16.26 108.96 12.378 Q 109.717 8.497 110.718 6.08 Q 111.719 3.663 112.842 2.32 Q 113.965 0.977 115.137 0.489 Q 116.309 0 117.432 0 Q 119.238 0 120.63 1.075 Q 122.022 2.149 122.974 4.078 Q 123.926 6.006 124.414 8.741 Q 124.902 11.475 124.902 14.747 Q 124.902 19.971 123.779 25.538 Q 122.656 31.104 120.874 36.646 Q 119.092 42.188 116.895 47.535 Q 114.697 52.881 112.549 57.666 Q 112.842 60.059 113.428 62.232 Q 114.014 64.405 114.941 66.089 Q 115.869 67.774 117.139 68.775 Q 118.408 69.776 120.068 69.776 Q 121.729 69.776 123.193 68.824 Q 124.658 67.872 125.732 66.333 Q 126.807 64.795 127.417 62.842 Q 128.027 60.889 128.027 58.838 Q 128.027 57.471 127.759 56.08 Q 127.49 54.688 126.929 53.589 Q 126.367 52.491 125.537 51.807 Q 124.707 51.124 123.535 51.124 Q 122.656 51.124 122.168 51.49 Q 121.68 51.856 121.436 52.32 Q 121.191 52.784 121.143 53.223 Q 121.094 53.663 121.094 53.809 Q 121.094 54.493 121.387 55.176 Q 121.68 55.86 122.51 56.397 Q 123.34 56.983 123.34 58.008 Q 123.34 58.838 122.778 59.327 Q 122.217 59.815 121.533 59.815 Q 120.557 59.815 119.8 59.229 Q 119.043 58.643 118.506 57.74 Q 117.969 56.836 117.676 55.811 Q 117.383 54.786 117.383 53.907 Q 117.383 52.491 117.871 51.294 Q 118.359 50.098 119.214 49.244 Q 120.068 48.389 121.167 47.925 Q 122.266 47.461 123.486 47.461 Q 125.586 47.461 127.124 48.438 Q 128.662 49.415 129.688 51.026 Q 130.713 52.637 131.201 54.688 Q 131.689 56.739 131.689 58.838 Q 131.689 60.059 131.543 61.231 Q 131.738 61.622 132.178 62.256 Q 132.617 62.891 133.35 63.477 Q 134.082 64.063 135.107 64.502 Q 136.133 64.942 137.5 64.942 Q 138.672 64.942 139.917 64.039 Q 141.162 63.135 142.31 61.792 Q 143.457 60.45 144.434 58.912 Q 145.41 57.374 146.045 56.055 A 1.871 1.871 0 0 1 146.243 55.736 A 112.1 112.1 0 0 1 146.973 47.51 Q 147.07 46.827 147.583 46.314 Q 148.096 45.801 148.926 45.801 Q 149.658 45.801 150.147 46.363 Q 150.635 46.924 150.635 47.657 Q 150.635 47.95 150.513 49.415 Q 150.391 50.879 150.22 52.906 Q 150.049 54.932 149.927 57.203 Q 149.805 59.473 149.805 61.377 Q 149.805 63.965 150.317 65.552 Q 150.83 67.139 151.636 68.018 Q 152.441 68.897 153.345 69.19 Q 154.248 69.483 155.078 69.483 Q 156.445 69.483 157.91 68.506 Q 159.375 67.53 160.913 65.772 Q 162.451 64.014 164.014 61.548 A 57.077 57.077 0 0 0 165.852 58.422 A 71.218 71.218 0 0 0 166.824 56.583 A 43.356 43.356 0 0 1 166.483 54.969 A 51.666 51.666 0 0 1 166.357 54.297 Q 165.381 48.877 165.381 42.432 Q 165.381 40.821 165.43 38.648 Q 165.479 36.475 165.625 34.058 Q 165.772 31.641 166.064 29.078 Q 166.357 26.514 166.846 24.073 L 149.316 24.073 Q 148.535 24.073 147.998 23.609 Q 147.461 23.145 147.461 22.364 Q 147.461 21.583 147.998 21.119 Q 148.535 20.655 149.316 20.655 L 167.676 20.655 Q 168.164 18.897 168.823 17.432 Q 169.482 15.967 170.337 14.893 Q 171.191 13.819 172.241 13.208 Q 173.291 12.598 174.561 12.598 Q 175.781 12.598 176.685 13.208 Q 177.588 13.819 178.223 14.893 Q 178.857 15.967 179.224 17.432 Q 179.59 18.897 179.785 20.655 L 204.736 20.655 Q 205.518 20.655 206.055 21.119 Q 206.592 21.583 206.592 22.364 Q 206.592 23.145 206.055 23.609 Q 205.518 24.073 204.736 24.073 L 179.981 24.073 L 179.981 24.61 Q 179.981 27.588 179.541 30.958 Q 179.102 34.327 178.345 37.671 Q 177.588 41.016 176.636 44.19 Q 175.684 47.364 174.683 50.049 Q 173.682 52.735 172.705 54.712 Q 171.729 56.69 170.947 57.666 Q 171.582 59.913 172.461 61.841 Q 173.34 63.77 174.439 65.21 Q 175.537 66.651 176.807 67.481 Q 178.076 68.311 179.541 68.311 Q 181.25 68.311 182.935 66.871 Q 184.619 65.43 186.06 63.453 Q 187.5 61.475 188.599 59.449 Q 189.697 57.422 190.186 56.202 A 2.195 2.195 0 0 1 190.551 55.596 A 1.644 1.644 0 0 1 190.92 55.283 A 41.793 41.793 0 0 0 191.387 54.31 Q 192.026 52.927 192.407 51.783 Q 193.018 49.952 193.408 47.95 Q 193.066 46.827 192.92 46.045 Q 192.773 45.264 192.773 44.434 Q 192.773 42.823 193.457 41.822 Q 194.141 40.821 195.361 40.821 Q 196.484 40.821 197.144 41.797 Q 197.803 42.774 197.803 44.19 Q 197.803 44.971 197.656 45.752 Q 197.51 46.534 197.266 47.706 Q 198.389 50.489 199.512 52.637 Q 200.635 54.786 201.514 56.568 Q 202.393 58.35 202.954 59.913 Q 203.516 61.475 203.516 63.038 Q 203.516 65.088 202.686 66.944 Q 201.856 68.799 199.951 70.069 Q 200.195 70.118 200.439 70.118 L 200.928 70.118 Q 203.711 70.118 206.055 68.848 Q 208.398 67.579 210.278 65.552 Q 212.158 63.526 213.623 61.06 Q 215.088 58.594 216.162 56.153 Q 216.65 55.03 217.529 55.03 Q 218.359 55.03 218.823 55.616 Q 219.287 56.202 219.287 56.885 Q 219.287 57.276 219.141 57.618 Q 218.604 58.936 217.749 60.621 Q 216.895 62.305 215.698 64.087 Q 214.502 65.87 212.939 67.579 Q 211.377 69.288 209.448 70.63 Q 207.52 71.973 205.225 72.779 Q 202.93 73.584 200.195 73.584 Q 196.924 73.584 194.116 72.437 Q 191.309 71.29 189.551 68.653 Q 189.258 68.213 189.258 67.725 Q 189.258 66.993 189.819 66.431 Q 190.381 65.87 191.113 65.87 Q 191.895 65.87 192.432 66.407 Q 192.481 66.504 192.773 66.724 Q 193.066 66.944 193.481 67.212 Q 193.897 67.481 194.458 67.676 Q 195.02 67.872 195.606 67.872 Q 196.777 67.872 197.583 67.383 Q 198.389 66.895 198.877 66.187 Q 199.365 65.479 199.585 64.673 Q 199.805 63.868 199.805 63.282 Q 199.805 62.061 199.414 60.84 Q 199.023 59.62 198.413 58.399 Q 197.803 57.178 197.095 55.884 Q 196.387 54.59 195.801 53.174 Q 195.508 53.956 195.093 54.932 Q 194.678 55.909 194.141 56.983 Q 193.809 57.609 193.464 58.027 A 3.572 3.572 0 0 1 193.331 58.179 A 85.645 85.645 0 0 1 193.322 58.199 Q 193.152 58.573 192.896 59.131 Q 192.334 60.352 191.431 61.963 Q 190.527 63.575 189.331 65.357 Q 188.135 67.139 186.646 68.604 Q 185.156 70.069 183.447 71.045 Q 181.738 72.022 179.834 72.022 Q 176.465 72.022 173.779 69.825 Q 171.094 67.627 169.214 63.672 A 31.335 31.335 0 0 1 168.296 61.513 A 45.018 45.018 0 0 1 167.573 62.711 A 52.916 52.916 0 0 1 166.895 63.77 Q 165.772 65.479 164.429 67.164 Q 163.086 68.848 161.572 70.191 Q 160.059 71.534 158.398 72.364 Q 156.738 73.194 155.029 73.194 Q 152.832 73.194 151.172 72.266 Q 149.512 71.338 148.364 69.776 Q 147.217 68.213 146.655 66.089 A 17.067 17.067 0 0 1 146.138 62.87 A 37.745 37.745 0 0 1 145.606 63.55 Q 144.531 64.893 143.262 66.016 Q 141.992 67.139 140.527 67.872 Q 139.063 68.604 137.5 68.604 Q 134.961 68.604 133.203 67.701 Q 131.445 66.797 130.322 65.674 Q 129.541 67.383 128.418 68.799 Q 127.295 70.215 125.928 71.265 Q 124.561 72.315 123.022 72.901 Q 121.484 73.487 119.873 73.487 Q 116.895 73.487 114.795 71.729 Q 112.695 69.971 111.304 67.017 A 25.92 25.92 0 0 1 109.997 63.61 A 35.012 35.012 0 0 1 109.39 61.356 A 28.59 28.59 0 0 1 108.765 62.244 A 37.745 37.745 0 0 1 107.764 63.55 Q 106.689 64.893 105.42 66.016 Q 104.15 67.139 102.686 67.872 Q 101.221 68.604 99.658 68.604 Q 97.119 68.604 95.361 67.701 Q 93.604 66.797 92.481 65.674 Q 91.699 67.383 90.576 68.799 Q 89.453 70.215 88.086 71.265 Q 86.719 72.315 85.181 72.901 Q 83.643 73.487 82.031 73.487 Q 79.053 73.487 76.953 71.729 Q 74.854 69.971 73.462 67.017 A 25.92 25.92 0 0 1 72.156 63.61 A 35.012 35.012 0 0 1 71.622 61.666 A 59.1 59.1 0 0 1 71.362 62.11 Q 70.41 63.721 69.141 65.479 Q 67.871 67.237 66.309 68.702 Q 64.746 70.166 62.939 71.119 Q 61.133 72.071 59.131 72.071 Q 56.299 72.071 54.37 70.264 Q 52.441 68.458 51.563 65.723 Q 49.902 68.506 47.607 70.142 Q 45.313 71.778 43.018 71.778 Q 41.211 71.778 39.746 71.119 Q 38.281 70.459 37.256 69.263 Q 36.231 68.067 35.669 66.456 A 10.152 10.152 0 0 1 35.2 64.448 A 90.455 90.455 0 0 1 32.366 68.131 A 98.818 98.818 0 0 1 32.08 68.482 Q 29.785 71.29 27.393 73.877 Q 25 76.465 22.998 78.467 Z M 73.779 51.416 Q 75.439 47.315 77.148 42.798 Q 78.857 38.282 80.225 33.594 Q 81.592 28.907 82.471 24.122 Q 83.35 19.336 83.35 14.698 Q 83.35 12.94 83.179 11.011 Q 83.008 9.083 82.568 7.471 Q 82.129 5.86 81.372 4.786 Q 80.615 3.711 79.443 3.711 Q 79.053 3.711 78.442 4.224 Q 77.832 4.737 77.148 6.031 Q 76.465 7.325 75.781 9.62 Q 75.098 11.915 74.536 15.455 Q 73.975 18.995 73.608 23.975 Q 73.242 28.956 73.242 35.694 Q 73.242 37.94 73.291 40.259 Q 73.34 42.579 73.413 44.678 Q 73.486 46.778 73.584 48.536 Q 73.682 50.293 73.779 51.416 Z M 111.621 51.416 Q 113.281 47.315 114.99 42.798 Q 116.699 38.282 118.066 33.594 Q 119.434 28.907 120.313 24.122 Q 121.191 19.336 121.191 14.698 Q 121.191 12.94 121.021 11.011 Q 120.85 9.083 120.41 7.471 Q 119.971 5.86 119.214 4.786 Q 118.457 3.711 117.285 3.711 Q 116.895 3.711 116.284 4.224 Q 115.674 4.737 114.99 6.031 Q 114.307 7.325 113.623 9.62 Q 112.939 11.915 112.378 15.455 Q 111.816 18.995 111.45 23.975 Q 111.084 28.956 111.084 35.694 Q 111.084 37.94 111.133 40.259 Q 111.182 42.579 111.255 44.678 Q 111.328 46.778 111.426 48.536 Q 111.523 50.293 111.621 51.416 Z M 19.531 82.374 Q 16.455 86.133 14.453 89.454 Q 12.451 92.774 11.255 95.704 Q 10.059 98.633 9.57 101.148 Q 9.082 103.663 9.082 105.762 Q 9.082 108.252 9.961 109.766 Q 10.84 111.28 12.109 111.28 Q 13.818 111.28 15.21 109.522 Q 16.602 107.764 17.578 104.712 Q 18.555 101.661 19.092 97.51 Q 19.629 93.36 19.629 88.575 Q 19.629 87.305 19.605 85.718 Q 19.58 84.131 19.531 82.374 Z M 176.318 24.073 L 170.557 24.073 Q 169.873 27.1 169.458 31.568 Q 169.043 36.036 169.043 42.432 Q 169.043 45.997 169.238 48.414 Q 169.434 50.831 169.824 52.784 Q 171.289 49.561 172.485 45.826 Q 173.682 42.09 174.536 38.282 Q 175.391 34.473 175.855 30.811 Q 176.318 27.149 176.318 24.073 Z M 154.004 32.911 Q 154.004 34.766 152.71 36.06 Q 151.416 37.354 149.561 37.354 Q 147.705 37.354 146.411 36.06 Q 145.117 34.766 145.117 32.911 Q 145.117 31.983 145.459 31.177 Q 145.801 30.372 146.411 29.761 Q 147.022 29.151 147.827 28.809 Q 148.633 28.467 149.561 28.467 Q 150.488 28.467 151.294 28.809 Q 152.1 29.151 152.71 29.761 Q 153.32 30.372 153.662 31.177 Q 154.004 31.983 154.004 32.911 Z M 171.436 20.655 L 176.123 20.655 Q 175.879 18.604 175.415 17.432 Q 174.951 16.26 174.365 16.26 Q 173.926 16.26 173.096 17.212 Q 172.266 18.165 171.436 20.655 Z M 151.27 32.911 Q 151.27 32.227 150.757 31.714 Q 150.244 31.202 149.561 31.202 Q 148.877 31.202 148.389 31.714 Q 147.9 32.227 147.9 32.911 Q 147.9 33.594 148.389 34.083 Q 148.877 34.571 149.561 34.571 Q 150.244 34.571 150.757 34.083 Q 151.27 33.594 151.27 32.911 Z M 170.606 56.348 L 170.606 56.299 L 170.606 56.348 Z"/></g></svg>
